<svg width="24" height="24" viewBox="0 0 24 24" fill="none" xmlns="http://www.w3.org/2000/svg">
<path d="M16.1641 14.5841C15.6414 14.068 14.9888 14.068 14.4694 14.5841C14.0732 14.977 13.677 15.3699 13.2874 15.7694C13.1809 15.8793 13.091 15.9026 12.9612 15.8293C12.7048 15.6895 12.4318 15.5763 12.1854 15.4231C11.0367 14.7006 10.0745 13.7717 9.22218 12.7263C8.79934 12.2069 8.42312 11.6509 8.16009 11.0249C8.10682 10.8984 8.11681 10.8152 8.22002 10.712C8.61622 10.3291 9.00244 9.93619 9.39198 9.54332C9.93469 8.99729 9.93469 8.35803 9.38866 7.80867C9.07902 7.4957 8.76938 7.18939 8.45974 6.87643C8.14011 6.5568 7.82381 6.23384 7.50086 5.91754C6.97813 5.40814 6.32556 5.40814 5.80617 5.92087C5.40663 6.31375 5.02375 6.71661 4.61756 7.10283C4.24133 7.45908 4.05155 7.89524 4.0116 8.40464C3.94834 9.23368 4.15143 10.0161 4.43776 10.7785C5.02375 12.3567 5.91604 13.7584 6.99811 15.0436C8.45974 16.7815 10.2044 18.1566 12.2453 19.1488C13.1643 19.5949 14.1165 19.9379 15.1519 19.9945C15.8644 20.0344 16.4837 19.8546 16.9798 19.2986C17.3194 18.919 17.7023 18.5728 18.0619 18.2099C18.5946 17.6705 18.5979 17.0179 18.0685 16.4852C17.4359 15.8493 16.8 15.2167 16.1641 14.5841Z" fill="#92959A"/>
<path d="M15.5284 11.9315L16.7569 11.7218C16.5638 10.5931 16.0311 9.57095 15.2221 8.75856C14.3664 7.90289 13.2843 7.36352 12.0924 7.19705L11.9192 8.43227C12.8415 8.56212 13.6805 8.9783 14.3431 9.64086C14.969 10.2668 15.3785 11.0592 15.5284 11.9315Z" fill="#92959A"/>
<path d="M17.4494 6.5908C16.031 5.17245 14.2364 4.27683 12.2554 4.00049L12.0823 5.23571C13.7936 5.47543 15.3452 6.2512 16.5704 7.4731C17.7324 8.63508 18.4948 10.1034 18.7712 11.7182L19.9997 11.5084C19.6768 9.63725 18.7945 7.93923 17.4494 6.5908Z" fill="#92959A"/>
</svg>
