<svg width="194" height="23" viewBox="0 0 194 23" fill="none" xmlns="http://www.w3.org/2000/svg">
<path d="M0.49 22V0.999999H5.35V18.04H15.88V22H0.49ZM28.4439 22.36C26.7839 22.36 25.2439 22.09 23.8239 21.55C22.4239 21.01 21.2039 20.25 20.1639 19.27C19.1439 18.29 18.3439 17.14 17.7639 15.82C17.2039 14.5 16.9239 13.06 16.9239 11.5C16.9239 9.94 17.2039 8.5 17.7639 7.18C18.3439 5.86 19.1539 4.71 20.1939 3.73C21.2339 2.75 22.4539 1.99 23.8539 1.45C25.2539 0.909999 26.7739 0.64 28.4139 0.64C30.0739 0.64 31.5939 0.909999 32.9739 1.45C34.3739 1.99 35.5839 2.75 36.6039 3.73C37.6439 4.71 38.4539 5.86 39.0339 7.18C39.6139 8.48 39.9039 9.92 39.9039 11.5C39.9039 13.06 39.6139 14.51 39.0339 15.85C38.4539 17.17 37.6439 18.32 36.6039 19.3C35.5839 20.26 34.3739 21.01 32.9739 21.55C31.5939 22.09 30.0839 22.36 28.4439 22.36ZM28.4139 18.22C29.3539 18.22 30.2139 18.06 30.9939 17.74C31.7939 17.42 32.4939 16.96 33.0939 16.36C33.6939 15.76 34.1539 15.05 34.4739 14.23C34.8139 13.41 34.9839 12.5 34.9839 11.5C34.9839 10.5 34.8139 9.59 34.4739 8.77C34.1539 7.95 33.6939 7.24 33.0939 6.64C32.5139 6.04 31.8239 5.58 31.0239 5.26C30.2239 4.94 29.3539 4.78 28.4139 4.78C27.4739 4.78 26.6039 4.94 25.8039 5.26C25.0239 5.58 24.3339 6.04 23.7339 6.64C23.1339 7.24 22.6639 7.95 22.3239 8.77C22.0039 9.59 21.8439 10.5 21.8439 11.5C21.8439 12.48 22.0039 13.39 22.3239 14.23C22.6639 15.05 23.1239 15.76 23.7039 16.36C24.3039 16.96 25.0039 17.42 25.8039 17.74C26.6039 18.06 27.4739 18.22 28.4139 18.22ZM48.0564 10.45H58.1364V14.35H48.0564V10.45ZM48.4164 22H43.5564V0.999999H59.4264V4.9H48.4164V22ZM67.213 22V4.96H60.493V0.999999H78.793V4.96H72.073V22H67.213Z" fill="#2E363E"/>
<path d="M104.304 0.999999H109.164V22H104.304V0.999999ZM94.7641 22H89.9041V0.999999H94.7641V22ZM104.664 13.39H94.4041V9.28H104.664V13.39ZM124.333 22.36C122.673 22.36 121.133 22.09 119.713 21.55C118.313 21.01 117.093 20.25 116.053 19.27C115.033 18.29 114.233 17.14 113.653 15.82C113.093 14.5 112.813 13.06 112.813 11.5C112.813 9.94 113.093 8.5 113.653 7.18C114.233 5.86 115.043 4.71 116.083 3.73C117.123 2.75 118.343 1.99 119.743 1.45C121.143 0.909999 122.663 0.64 124.303 0.64C125.963 0.64 127.483 0.909999 128.863 1.45C130.263 1.99 131.473 2.75 132.493 3.73C133.533 4.71 134.343 5.86 134.923 7.18C135.503 8.48 135.793 9.92 135.793 11.5C135.793 13.06 135.503 14.51 134.923 15.85C134.343 17.17 133.533 18.32 132.493 19.3C131.473 20.26 130.263 21.01 128.863 21.55C127.483 22.09 125.973 22.36 124.333 22.36ZM124.303 18.22C125.243 18.22 126.103 18.06 126.883 17.74C127.683 17.42 128.383 16.96 128.983 16.36C129.583 15.76 130.043 15.05 130.363 14.23C130.703 13.41 130.873 12.5 130.873 11.5C130.873 10.5 130.703 9.59 130.363 8.77C130.043 7.95 129.583 7.24 128.983 6.64C128.403 6.04 127.713 5.58 126.913 5.26C126.113 4.94 125.243 4.78 124.303 4.78C123.363 4.78 122.493 4.94 121.693 5.26C120.913 5.58 120.223 6.04 119.623 6.64C119.023 7.24 118.553 7.95 118.213 8.77C117.893 9.59 117.733 10.5 117.733 11.5C117.733 12.48 117.893 13.39 118.213 14.23C118.553 15.05 119.013 15.76 119.593 16.36C120.193 16.96 120.893 17.42 121.693 17.74C122.493 18.06 123.363 18.22 124.303 18.22ZM143.502 22V4.96H136.782V0.999999H155.082V4.96H148.362V22H143.502ZM162.167 9.46H172.277V13.24H162.167V9.46ZM162.527 18.1H173.957V22H157.697V0.999999H173.567V4.9H162.527V18.1ZM177.824 22V0.999999H182.684V18.04H193.214V22H177.824Z" fill="#92959A"/>
</svg>
