<svg width="20" height="20" viewBox="0 0 20 20" fill="none" xmlns="http://www.w3.org/2000/svg">
<path d="M18.7305 8.07422L18.2676 7.26563C18.2468 7.22998 18.2127 7.20402 18.1728 7.1934C18.133 7.18279 18.0905 7.18839 18.0547 7.20899L17.0645 7.78711L15.5352 3.56445C15.4544 3.31249 15.2957 3.0927 15.0819 2.93683C14.8681 2.78096 14.6103 2.69707 14.3457 2.69727H5.88285C5.20511 2.69727 4.60355 3.13477 4.39457 3.78125L2.93753 7.78906L1.94535 7.21094C1.90957 7.19035 1.86711 7.18474 1.82722 7.19536C1.78733 7.20597 1.75327 7.23193 1.73246 7.26758L1.26957 8.07422C1.2266 8.14844 1.25199 8.24219 1.32621 8.28516L2.50589 8.97266L2.22269 9.75391C2.19925 9.81641 2.18753 9.88281 2.18753 9.94922V16.75C2.18753 17.0566 2.418 17.3047 2.70121 17.3047H4.02152C4.26175 17.3047 4.47074 17.123 4.52152 16.8691L4.67191 16.1328H15.3282L15.4785 16.8691C15.5313 17.123 15.7383 17.3047 15.9785 17.3047H17.2989C17.5821 17.3047 17.8125 17.0566 17.8125 16.75V9.94922C17.8125 9.88281 17.8008 9.81641 17.7774 9.75391L17.4942 8.97266L18.6719 8.28516C18.7074 8.26468 18.7334 8.23111 18.7443 8.19167C18.7553 8.15222 18.7503 8.11005 18.7305 8.07422ZM5.15628 12.1289C4.72464 12.1289 4.37503 11.7793 4.37503 11.3477C4.37503 10.916 4.72464 10.5664 5.15628 10.5664C5.58792 10.5664 5.93753 10.916 5.93753 11.3477C5.93753 11.7793 5.58792 12.1289 5.15628 12.1289ZM12.7344 13.5938C12.7344 13.6797 12.6641 13.75 12.5782 13.75H7.42191C7.33597 13.75 7.26566 13.6797 7.26566 13.5938V11.9531C7.26566 11.8672 7.33597 11.7969 7.42191 11.7969H8.20316C8.2891 11.7969 8.35941 11.8672 8.35941 11.9531V12.6563H11.6407V11.9531C11.6407 11.8672 11.711 11.7969 11.7969 11.7969H12.5782C12.6641 11.7969 12.7344 11.8672 12.7344 11.9531V13.5938ZM14.8438 12.1289C14.4121 12.1289 14.0625 11.7793 14.0625 11.3477C14.0625 10.916 14.4121 10.5664 14.8438 10.5664C15.2754 10.5664 15.625 10.916 15.625 11.3477C15.625 11.7793 15.2754 12.1289 14.8438 12.1289ZM4.29691 8.16406L5.71683 4.25977L5.7266 4.23438L5.73441 4.20898C5.75589 4.14453 5.81449 4.10156 5.88285 4.10156H14.2344L15.7071 8.16406H4.29691Z" fill="#92959A"/>
</svg>
