<svg width="20" height="20" viewBox="0 0 20 20" fill="none" xmlns="http://www.w3.org/2000/svg">
<g clip-path="url(#clip0_10_351)">
<path d="M2.49996 6.66663H8.33329C8.82775 6.66663 9.3111 6.52 9.72222 6.2453C10.1333 5.9706 10.4538 5.58015 10.643 5.12334C10.8322 4.66652 10.8817 4.16385 10.7853 3.6789C10.6888 3.19395 10.4507 2.74849 10.1011 2.39886C9.75143 2.04923 9.30597 1.81113 8.82102 1.71466C8.33607 1.6182 7.8334 1.66771 7.37658 1.85693C6.91977 2.04615 6.52932 2.36658 6.25462 2.7777C5.97992 3.18882 5.83329 3.67217 5.83329 4.16663M3.33329 13.3333H12.5C12.9944 13.3333 13.4778 13.4799 13.8889 13.7546C14.3 14.0293 14.6204 14.4198 14.8097 14.8766C14.9989 15.3334 15.0484 15.8361 14.9519 16.321C14.8555 16.806 14.6174 17.2514 14.2677 17.6011C13.9181 17.9507 13.4726 18.1888 12.9877 18.2853C12.5027 18.3817 12.0001 18.3322 11.5433 18.143C11.0864 17.9538 10.696 17.6333 10.4213 17.2222C10.1466 16.8111 9.99996 16.3277 9.99996 15.8333M1.66663 9.99996H15.8333C16.3277 9.99996 16.8111 9.85334 17.2222 9.57863C17.6333 9.30393 17.9538 8.91348 18.143 8.45667C18.3322 7.99985 18.3817 7.49719 18.2853 7.01223C18.1888 6.52728 17.9507 6.08182 17.6011 5.73219C17.2514 5.38256 16.806 5.14446 16.321 5.048C15.8361 4.95153 15.3334 5.00104 14.8766 5.19026C14.4198 5.37948 14.0293 5.69991 13.7546 6.11103C13.4799 6.52216 13.3333 7.00551 13.3333 7.49996" stroke="#92959A" stroke-width="2" stroke-linecap="round" stroke-linejoin="round"/>
</g>
<defs>
<clipPath id="clip0_10_351">
<rect width="20" height="20" fill="white"/>
</clipPath>
</defs>
</svg>
