<svg width="20" height="20" viewBox="0 0 20 20" fill="none" xmlns="http://www.w3.org/2000/svg">
<g clip-path="url(#clip0_10_338)">
<path d="M19.8409 6.84C14.3043 1.71906 5.69341 1.72094 0.159036 6.84C-0.0490891 7.0325 -0.0531516 7.35844 0.148098 7.55813L1.2181 8.61969C1.40997 8.81031 1.71872 8.81438 1.9181 8.63156C6.4781 4.45406 13.5212 4.45312 18.0822 8.63156C18.2815 8.81438 18.5903 8.81 18.7822 8.61969L19.8522 7.55813C20.0531 7.35844 20.049 7.0325 19.8409 6.84ZM9.99997 13C8.89529 13 7.99997 13.8953 7.99997 15C7.99997 16.1047 8.89529 17 9.99997 17C11.1047 17 12 16.1047 12 15C12 13.8953 11.1047 13 9.99997 13ZM16.3334 10.3878C12.7315 7.2025 7.26435 7.20594 3.66654 10.3878C3.45091 10.5784 3.44404 10.9094 3.64872 11.1112L4.72497 12.1734C4.91247 12.3584 5.21435 12.3709 5.41404 12.1984C8.03747 9.93063 11.9684 9.93563 14.5856 12.1984C14.7853 12.3709 15.0872 12.3587 15.2747 12.1734L16.3509 11.1112C16.5559 10.9094 16.5487 10.5781 16.3334 10.3878V10.3878Z" fill="#92959A"/>
</g>
<defs>
<clipPath id="clip0_10_338">
<rect width="20" height="20" fill="white"/>
</clipPath>
</defs>
</svg>
